<svg width="150" height="150" viewBox="0 0 150 150" fill="none" xmlns="http://www.w3.org/2000/svg">
<path d="M104.292 32.7712C102.752 32.7712 101.504 31.5231 101.504 29.9836V21.1562C101.504 12.5646 94.5146 5.5752 85.923 5.5752H64.0775C55.4859 5.5752 48.4966 12.5646 48.4966 21.1562V29.9836C48.4966 31.5234 47.2485 32.7712 45.709 32.7712C44.1691 32.7712 42.9214 31.5231 42.9214 29.9836V21.1562C42.9211 9.49101 52.4118 0 64.0772 0H85.9227C97.5885 0 107.079 9.49101 107.079 21.1562V29.9836C107.079 31.5231 105.831 32.7712 104.292 32.7712Z" fill="url(#paint0_linear)"/>
<path d="M128.301 16.3865L128.16 16.4553C123.392 18.7818 117.814 18.7552 113.069 16.3827C108.263 14.0375 102.647 14.0375 97.8447 16.3827L97.8409 16.3865C93.0351 18.7317 87.4186 18.7317 82.6127 16.3865L82.6089 16.3827C77.8065 14.0375 72.1903 14.0375 67.3845 16.3827L67.3807 16.3865C62.5783 18.7317 56.9583 18.7317 52.1562 16.3865H52.1524C49.7513 15.212 47.1456 14.6249 44.5402 14.6249C41.9073 14.6249 39.2741 15.2246 36.848 16.424C32.0826 18.7801 26.477 18.7182 21.6995 16.3868C18.1827 14.6703 14.0835 17.2311 14.0835 21.1443V112.271C14.0835 118.56 19.182 123.658 25.4712 123.658H124.529C130.818 123.658 135.917 118.56 135.917 112.271V21.1443C135.917 17.2311 131.818 14.6703 128.301 16.3865ZM45.9128 34.5517C43.6748 34.5517 41.8607 32.7377 41.8607 30.4997C41.8607 28.2617 43.6748 26.4476 45.9128 26.4476C48.1508 26.4476 49.9648 28.2617 49.9648 30.4997C49.9648 32.7377 48.1508 34.5517 45.9128 34.5517ZM104.088 34.5517C101.85 34.5517 100.036 32.7377 100.036 30.4997C100.036 28.2617 101.85 26.4476 104.088 26.4476C106.326 26.4476 108.14 28.2617 108.14 30.4997C108.14 32.7377 106.326 34.5517 104.088 34.5517Z" fill="url(#paint1_linear)"/>
<path d="M128.301 42.7281L128.16 42.7969C123.392 45.1234 117.814 45.0967 113.069 42.7242C108.263 40.379 102.647 40.379 97.8447 42.7242L97.8409 42.7281C93.0351 45.0733 87.4186 45.0733 82.6127 42.7281L82.6089 42.7242C77.8065 40.379 72.1903 40.379 67.3845 42.7242L67.3807 42.7281C62.5783 45.0733 56.9583 45.0733 52.1562 42.7281H52.1524C49.7513 41.5535 47.1456 40.9661 44.5402 40.9661C41.9073 40.9661 39.2741 41.5658 36.848 42.7653C32.0826 45.1213 26.477 45.0595 21.6995 42.7281C18.1827 41.0115 14.0835 43.5724 14.0835 47.4856V138.612C14.0835 144.901 19.182 150 25.4712 150H124.529C130.818 150 135.917 144.901 135.917 138.612V47.4856C135.917 43.5724 131.818 41.0115 128.301 42.7281ZM45.9128 60.893C43.6748 60.893 41.8607 59.0789 41.8607 56.8409C41.8607 54.603 43.6748 52.7889 45.9128 52.7889C48.1508 52.7889 49.9648 54.603 49.9648 56.8409C49.9648 59.0789 48.1508 60.893 45.9128 60.893ZM104.088 60.893C101.85 60.893 100.036 59.0789 100.036 56.8409C100.036 54.603 101.85 52.7889 104.088 52.7889C106.326 52.7889 108.14 54.603 108.14 56.8409C108.14 59.0789 106.326 60.893 104.088 60.893Z" fill="url(#paint2_linear)"/>
<path d="M135.917 138.612V84.8617L108.128 57.073C108.007 59.202 106.247 60.8927 104.088 60.8927C103.105 60.8927 102.205 60.5429 101.504 59.9617V77.3939C101.504 85.9257 97.4473 93.5236 91.1664 98.3746L49.9167 57.4322C49.6298 59.3889 47.9491 60.8927 45.9126 60.8927C44.7261 60.8927 43.6624 60.3797 42.9211 59.567V77.3936C42.9211 86.6318 46.8516 94.965 53.122 100.823L102.298 150H124.529C130.818 150 135.917 144.902 135.917 138.612Z" fill="url(#paint3_linear)"/>
<path d="M75.0003 109.473C57.3118 109.473 42.9211 95.0824 42.9211 77.3938V56.8582C42.9211 55.3183 44.1692 54.0706 45.7087 54.0706C47.2483 54.0706 48.4963 55.3186 48.4963 56.8582V77.3938C48.4963 92.0077 60.3859 103.897 75 103.897C89.6142 103.897 101.504 92.0074 101.504 77.3938V56.8582C101.504 55.3183 102.752 54.0706 104.291 54.0706C105.831 54.0706 107.079 55.3186 107.079 56.8582V77.3938C107.079 95.0824 92.6886 109.473 75.0003 109.473Z" fill="url(#paint4_linear)"/>
<path d="M14.0837 108.115V138.612C14.0837 144.902 19.1823 150 25.4714 150H124.529C130.819 150 135.917 144.901 135.917 138.612V108.115H14.0837Z" fill="url(#paint5_linear)"/>
<defs>
<linearGradient id="paint0_linear" x1="74.9985" y1="3.77614" x2="74.9985" y2="35.6643" gradientUnits="userSpaceOnUse">
<stop stop-color="#FFB92D"/>
<stop offset="1" stop-color="#F59500"/>
</linearGradient>
<linearGradient id="paint1_linear" x1="74.9985" y1="19.9057" x2="74.9985" y2="63.84" gradientUnits="userSpaceOnUse">
<stop stop-color="#61DB99"/>
<stop offset="1" stop-color="#009E74"/>
</linearGradient>
<linearGradient id="paint2_linear" x1="76.7428" y1="95.4837" x2="164.623" y2="95.4837" gradientUnits="userSpaceOnUse">
<stop stop-color="#A7F3CE"/>
<stop offset="1" stop-color="#61DB99"/>
</linearGradient>
<linearGradient id="paint3_linear" x1="131.28" y1="129.618" x2="25.1172" y2="23.4588" gradientUnits="userSpaceOnUse">
<stop stop-color="#61DB99" stop-opacity="0"/>
<stop offset="1" stop-color="#009E74"/>
</linearGradient>
<linearGradient id="paint4_linear" x1="74.9986" y1="54.0727" x2="74.9986" y2="109.474" gradientUnits="userSpaceOnUse">
<stop stop-color="#FFB92D"/>
<stop offset="1" stop-color="#F59500"/>
</linearGradient>
<linearGradient id="paint5_linear" x1="128.553" y1="117.71" x2="-2.72642" y2="143.089" gradientUnits="userSpaceOnUse">
<stop stop-color="#61DB99" stop-opacity="0"/>
<stop offset="1" stop-color="#009E74"/>
</linearGradient>
</defs>
</svg>
